<svg id="Livello_1" data-name="Livello 1" xmlns="http://www.w3.org/2000/svg" viewBox="0 0 860.53 471.12"><defs><style>.cls-1,.cls-2{fill:#fff;}.cls-2{fill-rule:evenodd;}</style></defs><title>logo</title><g id="Raggruppa_2" data-name="Raggruppa 2"><path id="Tracciato_1" data-name="Tracciato 1" class="cls-1" d="M1131.63,640.29a62.64,62.64,0,0,0,1.26,10.58,6.61,6.61,0,0,0,4.25,4.09c1.35.22,3.86-1.69,4.56-3.23a35.48,35.48,0,0,0,.82-26.67c-1.27-3.76-5-3.93-7.28-.6a10.61,10.61,0,0,0-1.65,3.86c-.77,3.93-1.33,7.9-2,12Zm31.93-.7a21.65,21.65,0,0,1-8.41,13.85c-4.85,3-8.17,1.15-10.4-6.16-.62,1.59-1.09,2.56-1.42,3.55a14.29,14.29,0,0,1-11.56,11,8.5,8.5,0,0,1-8.94-4.62c-.34-.64-.8-1.21-1.51-2.28-1.2,2.38-2.2,4.37-3.22,6.34a14.39,14.39,0,0,1-9.4,7.94c-4.38,1.12-7.47-1-7.42-5.47.07-7.27.42-14.54.63-21.82.15-5.42,0-5.53-5.29-5.23a2.57,2.57,0,0,1-.89-.28,41.57,41.57,0,0,1,16-7.29v11.64c0,6-.2,12-.12,17.92a10.49,10.49,0,0,0,1.32,3.38,11.73,11.73,0,0,0,3.4-2,69.21,69.21,0,0,0,4.76-6.77c.24-.36.07-1,0-1.57a37.8,37.8,0,0,1,6.9-25.54,14.46,14.46,0,0,1,2.13-2.49,8.7,8.7,0,0,1,12.16-1.9c.21.15.41.31.61.48,1.65-1.67-1.32-5.25,2.55-6.11a49.06,49.06,0,0,0,7-2.71c.64,6.75,1.23,13.09,1.85,19.42.36,3.68.71,7.36,1.24,11,.14.93,1,1.75,1.54,2.62.92-.61,2.17-1,2.7-1.88a50,50,0,0,0,2.62-5.6l1.12.55Z" transform="translate(-534.39 -284.33)"/><path id="Tracciato_2" data-name="Tracciato 2" class="cls-1" d="M1053,672.78a13.45,13.45,0,0,1-13.08,9.29,8,8,0,0,1-8.3-7.6,30.53,30.53,0,0,1,.76-10.6,37.75,37.75,0,0,1,11.21-17.64,17.56,17.56,0,0,1,3.19-2.23,8.2,8.2,0,0,1,11.54,1.28c.11.14.22.28.32.43,1.7-1.42.16-5.06,3.7-5.22a65.27,65.27,0,0,0,7.61-1.26c-.92,7.28-1.81,14.12-2.63,21-.39,3.23-.71,6.48-.88,9.72,0,.91.75,1.85,1.17,2.78a9.31,9.31,0,0,0,2.7-1.42,67.79,67.79,0,0,0,4.22-5.46,15.81,15.81,0,0,1-14.34,13.39,5,5,0,0,1-4.79-5.14c0-.12,0-.24,0-.36,0-.83-.08-1.65-.13-2.88l-2.42,2a33.46,33.46,0,0,0,2.68-6.6,170,170,0,0,0,2.27-17.27,4.79,4.79,0,0,0-2.67-3.82,6.71,6.71,0,0,0-4.78,1.7,9.83,9.83,0,0,0-2.79,4.32c-1.64,4.81-3.18,9.67-4.43,14.6a15.1,15.1,0,0,0-.28,6.75,6.09,6.09,0,0,0,3.23,3.93c1.22.43,3.13-.71,4.58-1.47a10.81,10.81,0,0,0,2.29-2.24Z" transform="translate(-534.39 -284.33)"/><path id="Tracciato_3" data-name="Tracciato 3" class="cls-1" d="M997.43,683.34H969.68a28.27,28.27,0,0,0,6.49-4.85,30.18,30.18,0,0,0,3.41-8c3.55-10.36,7.1-20.74,10.57-31.13a18.15,18.15,0,0,0,.71-2.84c.71-4,.1-5-3.83-6a1.82,1.82,0,0,1-1.3-1.06h23.92c-5,1.42-5.55,5.8-6.74,9.86-3.25,11-6.63,22-10,33-2.48,8.06-2.52,8.05,4.55,11Z" transform="translate(-534.39 -284.33)"/><path id="Tracciato_4" data-name="Tracciato 4" class="cls-1" d="M1075.18,619.8l15.85-5.67c0,3.84.16,7.27,0,10.64-.71,12.46-1.54,24.91-2.32,37.36a4.05,4.05,0,0,0,0,1.3c.43,1.55.93,3.07,1.42,4.6a26.12,26.12,0,0,0,4.18-3.07c1.21-1.31,2-3,3.18-4.41a16.66,16.66,0,0,1-13.63,14.6,5.36,5.36,0,0,1-5.94-4.68,6,6,0,0,1,0-1.47c.51-7.24,1.36-14.46,2-21.7q.88-9.88,1.62-19.78c.44-6.06-.08-6.59-5.81-6.62l-.52-1.12Z" transform="translate(-534.39 -284.33)"/><path id="Tracciato_5" data-name="Tracciato 5" class="cls-1" d="M1015.69,649.89l-4.16-.53a4.61,4.61,0,0,1-.12-1.11,1.32,1.32,0,0,1,.41-.85,40.87,40.87,0,0,0,15.49-13.48c.17-.21.82-.06,1.81-.11-.61,3-1.16,5.82-1.76,8.61-.71,3.3-.51,3.54,2.87,3.29a7.78,7.78,0,0,1,2.26,0,1.47,1.47,0,0,1,.9,1.09,2.32,2.32,0,0,1-.7,1.23,1.29,1.29,0,0,1-.93.22c-5.62-.61-6.55,3.17-7.4,7.46-1.26,6.39-3,12.66-4.33,19a9.81,9.81,0,0,0,.71,3.55,11.11,11.11,0,0,0,3.41-1.42,58,58,0,0,0,4.43-5c.38.43.66.65.64.71A18.09,18.09,0,0,1,1017,683.79c-6.7,1.42-9.82-1.92-8.07-8.51,1.41-5.46,3-10.88,4.52-16.32.78-2.9,1.46-5.83,2.26-9.06Z" transform="translate(-534.39 -284.33)"/><path id="Tracciato_6" data-name="Tracciato 6" class="cls-1" d="M1105.92,611.66a4.52,4.52,0,0,1,5,3.93l0,.4a5.06,5.06,0,0,1-4.86,5.24h-.19a4.67,4.67,0,0,1-4.86-4.47v-.14a4.76,4.76,0,0,1,4.56-5Z" transform="translate(-534.39 -284.33)"/><g id="Raggruppa_1" data-name="Raggruppa 1"><path id="Tracciato_7" data-name="Tracciato 7" class="cls-2" d="M1343.35,305.62v40.11h7.16V329.91h5.2a28,28,0,0,1,8.43,1.27c2.66,1.42,3.37,4.66,3.37,9.32l.57,3.25v2h6.6c0-.71-.71-1.27-.71-2.68v-5.93a10,10,0,0,0-2-5.93,11,11,0,0,0-7.17-3.81,40.48,40.48,0,0,0,5.9-2,9.35,9.35,0,0,0,3.94-7.91,10.69,10.69,0,0,0-5.91-10.6,48.16,48.16,0,0,0-11.1-1.27Zm24.72,12.43a6,6,0,0,1-4.5,5.93,15.8,15.8,0,0,1-6.6,1.42h-6.46V310.28h5.9a16.42,16.42,0,0,1,9.14,2,6.11,6.11,0,0,1,2.53,5.79ZM1394.9,326a35.63,35.63,0,0,0-34.51-36.72c-.67,0-1.34,0-2,0a35.82,35.82,0,0,0-26.12,10.45,34.92,34.92,0,0,0-10.53,26.26,35.75,35.75,0,0,0,10.53,26.25,34.82,34.82,0,0,0,26.12,10.59,35.26,35.26,0,0,0,26.13-10.59,36.22,36.22,0,0,0,10.39-26.25Zm-36.52-32.21a30.53,30.53,0,0,1,22.76,9.89,30.2,30.2,0,0,1,9.13,22.32,30.89,30.89,0,0,1-9.13,22.32,30,30,0,0,1-22.76,9.89,33.52,33.52,0,0,1-32-32.2,28.69,28.69,0,0,1,9.69-22.32,29.64,29.64,0,0,1,22.33-9.89Z" transform="translate(-534.39 -284.33)"/><path id="Tracciato_8" data-name="Tracciato 8" class="cls-2" d="M972.81,284.35H932.92C806.22,283.08,530.49,356,534.43,524.77c3.93,165,243.7,231.94,382.75,230.67,179.09-1.27,299.33-84.05,347.65-154.39a505.61,505.61,0,0,0,51-100.57l1.83-5.93c1.42-3.25,3.38-5.79,4.64-8.48,2-2,3.23-3.95,4.64-4.66l3.23-1.27c2-1.27,3.23-2,3.23-2,2,0,2.66,0,2.66-.56l.56-.71c0-.71,0-.71.71-1.27V467.7c-.71-2-1.26-2.68-3.22-3.25h-45.81c-1.27,0-2,1.27-2.53,2.54v9.22c0,.71.57,1.42,2.53,1.42l3.23.56h4.64a9.65,9.65,0,0,1,8,11c0,.28-.1.57-.17.85,0,3.95,0,21.61-28.8,74.86L1255,490.76l-1.27-2.68a8.05,8.05,0,0,1-.71-4c0-4.66,3.23-6.5,9.84-6.5h2.54l.71-.71V469c0-2,0-3.24-.71-4l-.56-.56H1206c-1.26,0-2,.56-2,2.54v7.91l.71,2h.56c0,.71.71.71,1.42.71a12,12,0,0,1,10.4,7.77l1.26,2.68,35.39,107.07C1223,641.74,1144.61,703.6,920.57,710.06c-133.3,4-372.51-55.23-374.47-185.32-2.53-138.58,217.57-189.85,382.2-196.35l37.22,1.27c382.9,6.64,417.59,164.28,413.66,203C1368.09,649,1227.63,725.88,1091.66,737c160.66,26.88,297.2-84.15,298.61-212.27,0-50.57-56.18-228-417.45-240.41Z" transform="translate(-534.39 -284.33)"/></g><path id="Tracciato_9" data-name="Tracciato 9" class="cls-2" d="M1157.8,548.72a89.49,89.49,0,0,1-5.34,15.11,21.15,21.15,0,0,1-18.82,13.85c-16.43,0-24.83-16.53-24.83-50.57a172,172,0,0,1,2-27.67,41.78,41.78,0,0,1,7.87-19.08,19.73,19.73,0,0,1,15.61-9.18,16.15,16.15,0,0,1,10.54,3.95,24.88,24.88,0,0,1,7.16,8.62,33.48,33.48,0,0,1,5.2,13.14,115.26,115.26,0,0,1,2.66,26.25,160.77,160.77,0,0,1-2,25.55ZM1210.61,577h-5.76l-3.92-.7c-5.35-.57-7.87-4.52-7.87-11.73V372l-52.25,24.29-1.42,1.27c-2,5.23,0,11.16,2.66,10.6a12,12,0,0,0,7.87-3.39c7.17-2.54,9.84-2.54,10.4,4.66V477.1a79.21,79.21,0,0,0-9.13-13.13,35.51,35.51,0,0,0-11.09-6.5,34.69,34.69,0,0,0-14.33-2.68,47.34,47.34,0,0,0-20.92,5.23,56,56,0,0,0-16.32,14.4,75.81,75.81,0,0,0-11.8,24.44,80.7,80.7,0,0,0-4.64,28.26,114.5,114.5,0,0,0,4.64,29.52c7.87,25,23.45,37.44,46.35,37.44a38.38,38.38,0,0,0,33.29-17.1l5.34-7.91v24.3l48.31-2.54c2,0,2.54-1.42,2.54-3.4v-7.2a2.94,2.94,0,0,0-2-3.25Z" transform="translate(-534.39 -284.33)"/><path id="Tracciato_10" data-name="Tracciato 10" class="cls-2" d="M799.75,578.25,796.53,577a11.12,11.12,0,0,1-5.9-2.69,41.33,41.33,0,0,1-10.54-11.16l-39.18-56.5,22.19-22.88a34.39,34.39,0,0,1,25.54-10.6h1.27l.71-.71.56-1.83V460h-.56a2.19,2.19,0,0,0-1.42-.71H729.78c-3.23,0-5.19,1.42-5.19,2.68v9.18l2.66,1.27,8.43,1.42c3.93.57,5.2,2.54,5.9,7.2a17.07,17.07,0,0,1-5.9,11.16l-31.32,35.48V381.22l-52.25,24.29-1.42,1.27c-2,5.37,0,11.16,2.66,10.6a10.53,10.53,0,0,0,7.87-3.25c7.17-2.69,9.84-2.69,10.4,4.52V569.07c0,5.23-2,7.91-5.91,8.61h-2.52l-5.9.57c-.71,0-.71,0-1.26.71,0,0-.71.71-.71,1.27v9.89l.71.71c0,.57.56.57,1.26.57h62.65l1.42-.57c.56,0,.56,0,.56-.71l.71-2.68v-7.77l-2-1.42-5.19-.57h-3.93c-4.64-.71-7.17-3.95-7.17-11.16V546.05L718,531.63l22.9,32.92,2,4a4.71,4.71,0,0,1,1.26,3.82,4.85,4.85,0,0,1-4.3,5.35,4.42,4.42,0,0,1-.89,0l-5.91.57h-.56l-.71,1.42v7.77c-.71,2.68,1.27,3.95,5.9,3.95h58.2c2.66,0,3.93,0,3.93-1.27l.56-2.68v-5.79l-.56-3.39Z" transform="translate(-534.39 -284.33)"/><path id="Tracciato_11" data-name="Tracciato 11" class="cls-2" d="M1062.42,578.24h-4.63c-3.93,0-6.47-.57-7.17-2a10.71,10.71,0,0,1-2.67-7.2V500.69a51,51,0,0,0-9.83-32.06,33.88,33.88,0,0,0-26.69-13.14c-15.73,0-28.09,9.18-36,26.25l-2.66,5.79V455.47l-52.25,23.59c0,.71-1.27,1.27-1.27,1.27-2,5.93,0,11.16,2.67,11.16a17.12,17.12,0,0,0,8.43-3.25c5.19-2.54,7.87-2.54,9.13,1.27v80.94a7.13,7.13,0,0,1-7.87,7.8h-5.89c-1.83,0-2.53.71-2.53,2.68v7.21c.71,2,1.26,3.25,2.53,3.25h62.78v-.57l.71-.71v-9.89a1.78,1.78,0,0,0-1.56-2,1.34,1.34,0,0,0-.4,0h-5.9l-3.93-.57c-3.23-.71-4.63-2.68-4.63-6.64V510a52.29,52.29,0,0,1,7.3-20.49,23.91,23.91,0,0,1,17.55-9.18c11.8-.57,17,6.64,17.7,21.05v69.07c0,5.23-3.37,7.81-9.13,7.81h-5.34c-2-.57-2.53.71-2,2.68v7.91c0,1.27.71,2.54,2,2.54h62.79l.71-2v-9.18a1.79,1.79,0,0,0-1.56-2,1.41,1.41,0,0,0-.41,0Z" transform="translate(-534.39 -284.33)"/><path id="Tracciato_12" data-name="Tracciato 12" class="cls-2" d="M830.38,525.13V511.28l1.42-7.91c2.52-23.59,10.39-35.47,23.46-36.18a19.79,19.79,0,0,1,17,12.57,44.88,44.88,0,0,1,4.64,19.63c.56,7.91.56,13.14-4.64,14.55L830.42,532.3v-7.2Zm84.28,24.29-6.47-3.95h-2l-.71.57a38.06,38.06,0,0,1-2,3.39,13.31,13.31,0,0,1-2.52,5.23,47.06,47.06,0,0,1-7.17,10.45C888,573,873.5,577,862.4,577c-15.61,0-25.42-9.19-29.35-28.26-.71-.71-.71-.71-.71-1.27l80.34-34.89-.56-7.2c-.28-2.84-.7-5.67-1.26-8.47-7.31-30.23-27.54-42.8-55.63-42.8A60.39,60.39,0,0,0,801,490.28a75.24,75.24,0,0,0-8.43,36.18A71.92,71.92,0,0,0,805,567.85a65.3,65.3,0,0,0,32.73,23.59,74.21,74.21,0,0,0,18.26,2.68,79.56,79.56,0,0,0,21.5-2.68,52.37,52.37,0,0,0,33.43-29.52l3.23-7.2a10.87,10.87,0,0,0,1.26-4l-.71-1.27Z" transform="translate(-534.39 -284.33)"/></g></svg>