<?xml version="1.0" encoding="utf-8"?>
<!-- Generator: Adobe Illustrator 26.1.0, SVG Export Plug-In . SVG Version: 6.00 Build 0)  -->
<svg version="1.1" id="Layer_1" xmlns="http://www.w3.org/2000/svg" xmlns:xlink="http://www.w3.org/1999/xlink" x="0px" y="0px"
	 viewBox="0 0 121.8 50" style="enable-background:new 0 0 121.8 50;" xml:space="preserve">
<style type="text/css">
	.st0{fill:#FFFFFF;}
</style>
<path id="XMLID_34_" class="st0" d="M22.3,6.4c-1.4,1.7-3.7,3-6,2.8C16,7,17.1,4.6,18.4,3.1c1.4-1.7,3.9-3,5.9-3.1
	C24.6,2.4,23.7,4.7,22.3,6.4 M24.3,9.7c-3.3-0.2-6.1,1.9-7.7,1.9c-1.6,0-4-1.8-6.6-1.7c-3.4,0-6.6,2-8.3,5
	c-3.6,6.1-0.9,15.2,2.5,20.2c1.7,2.5,3.7,5.2,6.4,5.1c2.5-0.1,3.5-1.6,6.6-1.6c3.1,0,3.9,1.6,6.6,1.6c2.8,0,4.5-2.5,6.2-4.9
	c1.9-2.8,2.7-5.5,2.8-5.7c0,0-5.3-2.1-5.4-8.2c0-5.1,4.2-7.5,4.4-7.7C29.3,10.2,25.6,9.8,24.3,9.7 M43.5,2.8v37.1h5.8V27.2h8
	c7.3,0,12.4-5,12.4-12.2s-5-12.2-12.2-12.2L43.5,2.8L43.5,2.8z M49.2,7.7h6.6c5,0,7.8,2.7,7.8,7.4s-2.9,7.4-7.9,7.4h-6.6V7.7z
	 M80.1,40.2c3.6,0,7-1.8,8.5-4.7h0.1v4.4H94V21.5c0-5.4-4.3-8.8-10.9-8.8c-6.1,0-10.6,3.5-10.8,8.3h5.2c0.4-2.3,2.5-3.8,5.4-3.8
	c3.5,0,5.5,1.6,5.5,4.7v2l-7.2,0.4C74.6,24.7,71,27.5,71,32.2C71,37,74.7,40.2,80.1,40.2z M81.6,35.8c-3.1,0-5-1.5-5-3.7
	c0-2.3,1.9-3.7,5.5-3.9l6.4-0.4v2.1C88.5,33.3,85.5,35.8,81.6,35.8z M101.1,50c5.6,0,8.3-2.1,10.6-8.6L121.8,13H116l-6.8,21.9h-0.1
	L102.3,13h-6l9.8,27l-0.5,1.6c-0.9,2.8-2.3,3.9-4.9,3.9c-0.5,0-1.3,0-1.7-0.1v4.4C99.3,50,100.7,50,101.1,50z"/>
</svg>
