<?xml version="1.0" encoding="utf-8"?>
<!-- Generator: Adobe Illustrator 26.1.0, SVG Export Plug-In . SVG Version: 6.00 Build 0)  -->
<svg version="1.1" id="Livello_1" xmlns="http://www.w3.org/2000/svg" xmlns:xlink="http://www.w3.org/1999/xlink" x="0px" y="0px"
	 viewBox="0 0 125.8 50" style="enable-background:new 0 0 125.8 50;" xml:space="preserve">
<style type="text/css">
	.st0{fill:#FFFFFF;}
	.st1{fill:#4285F4;}
	.st2{fill:#34A853;}
	.st3{fill:#FBBC04;}
	.st4{fill:#EA4335;}
</style>
<g>
	<path class="st0" d="M59.5,24.4V39h-4.7V2.8H67c3,0,5.8,1.1,8,3.1c2.2,1.9,3.3,4.7,3.3,7.7s-1.1,5.7-3.3,7.7c-2.2,2-4.9,3.1-8,3.1
		L59.5,24.4L59.5,24.4z M59.5,7.2v12.6h7.9c1.7,0,3.5-0.6,4.6-1.9c2.5-2.4,2.5-6.3,0.2-8.6l-0.2-0.2c-1.3-1.3-2.8-2-4.6-1.9
		L59.5,7.2L59.5,7.2z"/>
	<path class="st0" d="M89.2,13.5c3.5,0,6.1,0.9,8.2,2.8s3,4.4,3,7.5V39h-4.4v-3.5h-0.2c-1.9,2.8-4.6,4.2-7.7,4.2
		c-2.7,0-5-0.8-6.9-2.4c-1.7-1.6-2.8-3.8-2.8-6.1c0-2.5,0.9-4.6,2.8-6.1c1.9-1.6,4.6-2.2,7.7-2.2c2.8,0,5,0.5,6.8,1.6v-1.1
		c0-1.6-0.6-3.1-1.9-4.1c-1.3-1.1-2.8-1.7-4.6-1.7c-2.7,0-4.7,1.1-6.1,3.3L79,18.4C81.5,15.1,84.8,13.5,89.2,13.5z M83.2,31.4
		c0,1.3,0.6,2.4,1.6,3c1.1,0.8,2.4,1.3,3.6,1.3c1.9,0,3.8-0.8,5.2-2.2c1.6-1.4,2.4-3.1,2.4-5c-1.4-1.1-3.5-1.7-6.1-1.7
		c-1.9,0-3.5,0.5-4.7,1.4C83.8,28.9,83.2,30,83.2,31.4z"/>
	<path class="st0" d="M125.8,14.3L110.2,50h-4.7l5.8-12.4l-10.2-23.1h5l7.4,17.8h0.2l7.2-17.8h4.9V14.3z"/>
	<path class="st1" d="M40.8,21.2c0-1.4-0.2-2.8-0.3-4.2H20.8v8H32c-0.5,2.5-1.9,4.9-4.1,6.3v5.2h6.8C38.6,32.9,40.8,27.5,40.8,21.2z
		"/>
	<path class="st2" d="M20.8,41.5c5.7,0,10.4-1.9,13.8-5l-6.8-5.2c-1.9,1.3-4.2,2-7.1,2c-5.3,0-10.1-3.6-11.6-8.6H2.2V30
		C5.9,37.1,12.9,41.5,20.8,41.5z"/>
	<path class="st3" d="M9.2,24.7c-0.9-2.5-0.9-5.3,0-8v-5.3H2.2c-3,5.8-3,12.7,0,18.7L9.2,24.7z"/>
	<path class="st4" d="M20.8,8.2c3,0,5.8,1.1,8,3.1l0,0l6-6C31,1.9,26-0.1,20.9,0C13.1,0,5.9,4.4,2.4,11.5l6.9,5.3
		C10.7,11.8,15.4,8.2,20.8,8.2z"/>
</g>
</svg>
