<?xml version="1.0" encoding="utf-8"?>
<!-- Generator: Adobe Illustrator 26.1.0, SVG Export Plug-In . SVG Version: 6.00 Build 0)  -->
<svg version="1.1" id="Livello_1" xmlns:v="https://vecta.io/nano"
	 xmlns="http://www.w3.org/2000/svg" xmlns:xlink="http://www.w3.org/1999/xlink" x="0px" y="0px" viewBox="0 0 188.6 50"
	 style="enable-background:new 0 0 188.6 50;" xml:space="preserve">
<style type="text/css">
	.st0{fill:#003087;}
	.st1{fill:#0070E0;}
	.st2{fill:#001C64;}
</style>
<g transform="translate(936.898 -21.779)">
	<path class="st0" d="M-876.6,31.8c-0.4,0-0.7,0.3-0.8,0.7l-4.5,28.5c-0.1,0.4,0.2,0.8,0.6,0.8c0,0,0.1,0,0.1,0h5.3
		c0.4,0,0.7-0.3,0.8-0.7l1.3-8.4c0.1-0.4,0.4-0.7,0.8-0.7h4.8c5.7,0,10.5-4.1,11.3-9.7c0.9-5.6-3.5-10.6-9.8-10.6H-876.6z
		 M-871.4,38.1h3.9c3.2,0,4.2,1.9,3.9,4c-0.3,2.1-1.9,3.6-5,3.6h-3.9L-871.4,38.1z M-845.9,40.1c-1.3,0-2.9,0.3-4.6,1
		c-4,1.7-5.9,5.1-6.7,7.6c0,0-2.6,7.6,3.3,11.8c0,0,5.4,4,11.5-0.2l-0.1,0.7c-0.1,0.4,0.2,0.8,0.6,0.8c0,0,0.1,0,0.1,0h5.1
		c0.4,0,0.7-0.3,0.8-0.7l3.1-19.5c0.1-0.4-0.2-0.8-0.6-0.8c0,0-0.1,0-0.1,0h-5.1c-0.4,0-0.7,0.3-0.8,0.7l-0.2,1.1
		C-839.7,42.5-841.9,40.1-845.9,40.1L-845.9,40.1z M-845.7,46.2c0.6,0,1.1,0.1,1.6,0.2c2.2,0.7,3.4,2.8,3.1,5.1
		c-0.4,2.8-2.7,4.9-5.7,4.9c-0.6,0-1.1-0.1-1.6-0.2c-2.2-0.7-3.4-2.8-3.1-5.1C-851,48.3-848.7,46.2-845.7,46.2L-845.7,46.2z"/>
	<path class="st1" d="M-803.8,31.8c-0.4,0-0.7,0.3-0.8,0.7l-4.5,28.5c-0.1,0.4,0.2,0.8,0.6,0.8c0,0,0.1,0,0.1,0h5.3
		c0.4,0,0.7-0.3,0.8-0.7l1.3-8.4c0.1-0.4,0.4-0.7,0.8-0.7h4.8c5.7,0,10.5-4.1,11.3-9.7c0.9-5.6-3.5-10.6-9.8-10.6H-803.8z
		 M-798.6,38.1h3.9c3.2,0,4.2,1.9,3.9,4c-0.3,2.1-1.9,3.6-5,3.6h-3.9L-798.6,38.1z M-773.1,40.1c-1.3,0-2.9,0.3-4.6,1
		c-4,1.7-5.9,5.1-6.7,7.6c0,0-2.6,7.6,3.3,11.8c0,0,5.4,4,11.5-0.2l-0.1,0.7c-0.1,0.4,0.2,0.8,0.6,0.8c0,0,0.1,0,0.1,0h5.1
		c0.4,0,0.7-0.3,0.8-0.7l3.1-19.5c0.1-0.4-0.2-0.8-0.6-0.8c0,0-0.1,0-0.1,0h-5.1c-0.4,0-0.7,0.3-0.8,0.7l-0.2,1.1
		C-766.8,42.5-769,40.1-773.1,40.1L-773.1,40.1z M-772.9,46.2c0.6,0,1.1,0.1,1.6,0.2c2.2,0.7,3.4,2.8,3.1,5.1
		c-0.4,2.8-2.7,4.9-5.7,4.9c-0.6,0-1.1-0.1-1.6-0.2c-2.2-0.7-3.4-2.8-3.1-5.1C-778.2,48.3-775.9,46.2-772.9,46.2L-772.9,46.2z"/>
	<path class="st0" d="M-830.5,40.8c-0.4,0-0.7,0.4-0.6,0.8l5.5,17.2l-5,8.1c-0.2,0.4,0,0.9,0.5,0.9h5.9c0.3,0,0.7-0.2,0.8-0.5
		l15.5-25.6c0.2-0.4,0-0.9-0.5-0.9h-5.9c-0.3,0-0.7,0.2-0.8,0.5l-6.1,10.3l-3.1-10.2c-0.1-0.3-0.4-0.6-0.8-0.6L-830.5,40.8z"/>
	<path class="st1" d="M-754.4,31.8c-0.4,0-0.7,0.3-0.8,0.7l-4.5,28.5c-0.1,0.4,0.2,0.8,0.6,0.8c0,0,0.1,0,0.1,0h5.3
		c0.4,0,0.7-0.3,0.8-0.7l4.5-28.5c0.1-0.4-0.2-0.8-0.6-0.8c0,0-0.1,0-0.1,0L-754.4,31.8z"/>
	<path class="st2" d="M-921,31.8c-0.7,0-1.3,0.5-1.4,1.2l-2.4,15c0.1-0.7,0.7-1.2,1.4-1.2h6.9c7,0,12.9-5.1,14-12
		c0.1-0.5,0.1-1,0.1-1.6c-1.8-0.9-3.9-1.5-6.1-1.5L-921,31.8z"/>
	<path class="st1" d="M-902.3,33.2c0,0.5-0.1,1-0.1,1.6c-1.1,6.9-7,12-14,12h-6.9c-0.7,0-1.3,0.5-1.4,1.2l-2.2,13.8l-1.4,8.6
		c-0.1,0.6,0.3,1.2,1,1.3c0.1,0,0.1,0,0.2,0h7.5c0.7,0,1.3-0.5,1.4-1.2l2-12.6c0.1-0.7,0.7-1.2,1.4-1.2h4.4c7,0,12.9-5.1,14-12
		C-895.7,39.9-898.1,35.5-902.3,33.2L-902.3,33.2z"/>
	<path class="st0" d="M-929.6,21.8c-0.7,0-1.3,0.5-1.4,1.2l-5.9,37.4c-0.1,0.7,0.4,1.4,1.2,1.4h8.8l2.2-13.8l2.4-15
		c0.1-0.7,0.7-1.2,1.4-1.2h12.5c2.3,0,4.4,0.5,6.1,1.5c0.1-6.3-5.1-11.5-12.2-11.5L-929.6,21.8z"/>
</g>
</svg>
