<?xml version="1.0" encoding="utf-8"?>
<!-- Generator: Adobe Illustrator 23.0.6, SVG Export Plug-In . SVG Version: 6.00 Build 0)  -->
<svg version="1.1" id="Livello_1" xmlns="http://www.w3.org/2000/svg" xmlns:xlink="http://www.w3.org/1999/xlink" x="0px" y="0px"
	 viewBox="0 0 25 25" style="enable-background:new 0 0 25 25;" xml:space="preserve">
<style type="text/css">
	.st0{fill:#FFFFFF;}
</style>
<title>instagram-icon</title>
<g id="Icon_ionic-logo-instagram">
	<path id="Tracciato_17" class="st0" d="M17.7,2.1c2.9,0,5.2,2.3,5.2,5.2v10.5c0,2.9-2.3,5.2-5.2,5.2H7.3c-2.9,0-5.2-2.3-5.2-5.2
		V7.3c0-2.9,2.3-5.2,5.2-5.2H17.7 M17.7,0H7.3C3.3,0,0,3.3,0,7.3v10.4c0,4,3.3,7.3,7.3,7.3h10.4c4,0,7.3-3.3,7.3-7.3V7.3
		C25,3.3,21.7,0,17.7,0z"/>
	<path id="Tracciato_18" class="st0" d="M19.2,7.5c-0.9,0-1.7-0.8-1.7-1.7c0-0.9,0.8-1.7,1.7-1.7c0.9,0,1.7,0.8,1.7,1.7l0,0
		C20.9,6.7,20.1,7.5,19.2,7.5L19.2,7.5z"/>
	<path id="Tracciato_19" class="st0" d="M12.5,8C15,8,17,10,17,12.5S15,17,12.5,17S8,15,8,12.5C8,10,10,8,12.5,8 M12.5,5.8
		c-3.7,0-6.7,3-6.7,6.8s3,6.8,6.7,6.8s6.8-3,6.8-6.8S16.2,5.8,12.5,5.8z"/>
</g>
</svg>
