<?xml version="1.0" encoding="utf-8"?>
<!-- Generator: Adobe Illustrator 26.1.0, SVG Export Plug-In . SVG Version: 6.00 Build 0)  -->
<svg version="1.1" id="Livello_1" xmlns="http://www.w3.org/2000/svg" xmlns:xlink="http://www.w3.org/1999/xlink" x="0px" y="0px"
	 viewBox="0 0 421 100" style="enable-background:new 0 0 421 100;" xml:space="preserve">
<style type="text/css">
	.st0{fill:#FEFEFE;}
	.st1{fill:#5A31F3;}
	.st2{fill:#FEFDFE;}
	.st3{fill:#FCFBFE;}
</style>
<g>
	<path class="st0" d="M314.7,28.7c2.9,3.1,3.7,8.1,1.8,12.3c-1.7,3.6-4.6,5.5-8.6,5.8c-10.4,0.8-10.4,0.9-10.4-9.2v-1.3
		c0-0.4-0.1-0.9,0-1.3c0.6-3-1.7-6.8,1.4-8.9C302,23.9,312.3,26.1,314.7,28.7z"/>
	<path class="st0" d="M347.8,55c-1.7,0.1-3.5,0-5.2,0.2c-3.2,0.3-6.4,1.2-6.2,5.2c0.2,3.9,3.6,4,6,4.3c4.4,0,7.3-1.7,8.7-4.7
		C352.8,56,352,54.8,347.8,55z M347.8,55c-1.7,0.1-3.5,0-5.2,0.2c-3.2,0.3-6.4,1.2-6.2,5.2c0.2,3.9,3.6,4,6,4.3
		c4.4,0,7.3-1.7,8.7-4.7C352.8,56,352,54.8,347.8,55z M403.2,0.4c-40.5,0-81,0-121.4,0c-11.1,0-17,5.8-17,17.1c0,21.8,0,43.6,0,65.3
		c0,10.9,6.3,17.1,17.1,17.1c20.3,0,40.6,0,60.9,0h60.1c12.1,0,17.8-5.7,17.8-17.6c0-21.5,0-43,0-64.5
		C420.7,6.2,414.9,0.4,403.2,0.4z M310.2,54.3c-2.9,0.2-5.9,0.3-8.8,0.1c-3.2-0.2-4.1,1.1-3.9,4c0.2,2.5-0.2,5,0.1,7.4
		c0.5,3.7-1.2,4.2-4.5,4.3c-3.6,0.1-4.4-1.1-4.3-4.5c0.2-7.3,0.1-14.6,0.1-21.9c0-7.5,0.1-14.9,0-22.4c0-2.4,0.6-3.4,3.2-3.4
		c5.8,0.2,11.7-0.1,17.5,0.2c9.6,0.4,16.5,8,16.6,18C326.2,46,319.6,53.6,310.2,54.3z M358.4,69.8c-2.1,0.2-5.2,2-6.7-1.6
		c-0.7-1.8-1.6-0.3-2.3,0.2c-4,2.9-8.5,3-13,2.1c-4.9-0.9-7.9-4.4-8.3-9c-0.5-5.3,1.8-9,6.7-11.1c4.2-1.8,8.6-1.6,12.9-1.9
		c1.4-0.1,3.5,0.9,4-1.5c0.4-2.4-0.5-4.3-2.8-5.4c-3.4-1.6-8.3-0.8-10.8,2.2c-2.3,2.8-5.1,1.1-7.6,1.3c-0.6,0.1-0.8-0.7-0.7-1.3
		c0.2-0.7,0.3-1.4,0.6-2.1c2.3-5.7,9.8-8.4,19.2-7c6,0.9,9.6,4.6,10,10.9c0.3,3.6,0,7.3,0,11h0.2c0,2.8,0.2,5.6-0.1,8.3
		C359.7,66.8,361.2,69.6,358.4,69.8z M399,40.9c-4.3,11.6-8.7,23.2-13.1,34.8c-3,7.8-8.6,11.5-16,11.1c-3.5-0.2-3.3-2.2-3.5-4.7
		c-0.2-2.8,0.8-3.3,3.5-3.3c6.6,0.1,9.8-4.5,7.5-10.6C374,59,370.3,50,366.9,40.8c-0.6-1.5-3-3.7-0.4-5.1c3-1.7,6.9,0.1,8.1,3.1
		c2.3,6.1,4.6,12.3,6.9,18.4c0.5,1.3,0.6,2.9,2.6,4c1.7-5.1,3.3-10,4.9-14.9c0.9-2.8,1.8-5.5,2.8-8.3c0.3-0.9,0.2-2.2,1.6-2.4
		c2.3-0.3,5-1.1,6.8,0.4C401.3,37.1,399.6,39.3,399,40.9z M347.8,55c-1.7,0.1-3.5,0-5.2,0.2c-3.2,0.3-6.4,1.2-6.2,5.2
		c0.2,3.9,3.6,4,6,4.3c4.4,0,7.3-1.7,8.7-4.7C352.8,56,352,54.8,347.8,55z"/>
	<path class="st0" d="M244,32.1c-7.4-10.1-20.5-14.5-30.9-10.4c-3.4,1.4-6.1,3.8-9.3,6.6c-0.7-8.3-0.7-8.3-8.4-8.3
		c-0.9,0-1.8,0.1-2.6,0c-3.6-0.6-4.3,1.1-4.3,4.4c0.1,21.2,0.1,42.4,0.1,63.6c0,11.7,0,11.6,11.6,11.6c3.2,0,4.4-0.8,4.3-4.2
		c-0.2-6.8-0.1-13.6-0.1-21.2c6.2,5.4,12.5,8,19.8,7C246.9,78,257.8,50.9,244,32.1z M219.3,66.3c-8.8,0.1-15.9-7-15.8-15.8
		c0.1-8.4,6.9-15.3,15.3-15.4c8.5-0.2,15.6,6.9,15.6,15.5C234.4,58.9,227.3,66.3,219.3,66.3z"/>
	<path class="st0" d="M74.3,27.3c6-6.3,13.2-8.3,21.5-6c9.4,2.5,15.2,11.2,15.5,23.4c0.3,11.1,0,22.2,0.1,33.3
		c0,2.5-0.9,3.4-3.3,3.3c-3.1-0.1-6.1-0.2-9.2,0c-2.7,0.2-3.5-0.9-3.5-3.5c0.1-9.4,0.1-18.7,0-28.1c0-1.9-0.1-3.8-0.4-5.7
		c-0.9-6-4.1-8.9-9.5-8.8c-6,0.1-10.7,3.9-10.9,9.8c-0.3,10.5-0.3,21-0.1,31.6c0.1,3.5-0.8,4.8-4.6,4.8c-11.5-0.2-11.5,0-11.5-11.4
		c0-21.8,0.1-43.6-0.1-65.3C58.3,1,59.4-0.1,63,0c10.6,0.2,10.6,0,10.6,10.5c0,5.3,0,10.5,0.1,15.8C73.7,26.5,73.9,26.8,74.3,27.3z"
		/>
	<path class="st0" d="M147.9,85.1c-19,0-32.6-16.2-27.8-33.2c1.5-5.3,4.9-9.2,9.4-12.2c0.6-0.4,1.6-1,1.9-0.8c3.1,2.2,3.8,6,5.8,9
		c1.1,1.8-0.1,2.6-1.2,3.6c-6.8,6.6-4.5,16.4,4.6,19.3c7.9,2.5,15.6,1.9,21.3-4.7c6.3-7.3,6.3-15.8,2.8-24.3
		c-3.2-7.9-9.6-11.6-18-11.5c-6.9,0.1-13.7,1.2-19.4,5.7c-1.8,1.4-2.8,1.2-4.1-0.8c-6-9.1-5.7-10.7,4.3-14.8
		c21.1-8.7,46.4-1.3,52.4,24.6C185,66.2,169.9,85,147.9,85.1z"/>
	<path class="st0" d="M7.4,60.4c2.4,0,4.1,0,5.9,0c1.4,0,2.2,0.3,3,1.8c2.9,5.3,12.4,7,17.4,3.3c3.2-2.4,2.8-5.8-1.1-7.5
		c-3.6-1.6-7.4-2.5-11.2-3.6c-3.6-1.1-7.3-2.2-10.6-4.1C1.1,44.7-0.8,32.6,6.6,24.5c10-11.1,32.6-9.8,40.3,2.3
		c0.5,0.7,0.9,1.5,1.3,2.3c2.7,6.4,2,7.5-4.8,7.5c-2.2,0-4.4-0.1-6.6,0c-1.5,0.1-2.2-0.5-3-1.8c-2.5-4.3-10.3-5.6-14.3-2.6
		c-2.7,2.1-2.3,5.5,1.1,7.4c3.4,1.9,7.2,2.3,10.9,3.3c3.1,0.9,6.3,1.4,9.2,2.8c12.7,6.1,14.1,22.1,2.8,30.4
		c-10.1,7.3-27.5,6.5-36.7-2C5.3,72.8,4,71.3,3,69.7c-1.7-2.6-3.6-5.9-2.3-8.5C1.7,59,5.5,60.9,7.4,60.4z"/>
	<path class="st1" d="M316.5,40.9c-1.7,3.6-4.6,5.5-8.6,5.8c-10.4,0.8-10.4,0.9-10.4-9.2v-1.3c0-0.4-0.1-0.9,0-1.3
		c0.6-3-1.7-6.8,1.4-8.9c3.1-2.1,13.3,0.2,15.7,2.7C317.6,31.8,318.4,36.8,316.5,40.9z"/>
	<path class="st1" d="M351.1,60c-1.4,3-4.3,4.7-8.7,4.7c-2.4-0.3-5.8-0.4-6-4.3c-0.2-4,3-4.9,6.2-5.2c1.7-0.2,3.5-0.2,5.2-0.2
		C352,54.8,352.8,56,351.1,60z"/>
	<path class="st2" d="M316.5,40.9c-1.7,3.6-4.6,5.5-8.6,5.8c-10.4,0.8-10.4,0.9-10.4-9.2v-1.3c0-0.4-0.1-0.9,0-1.3
		c0.6-3-1.7-6.8,1.4-8.9c3.1-2.1,13.3,0.2,15.7,2.7C317.6,31.8,318.4,36.8,316.5,40.9z"/>
	<path class="st3" d="M351.1,60c-1.4,3-4.3,4.7-8.7,4.7c-2.4-0.3-5.8-0.4-6-4.3c-0.2-4,3-4.9,6.2-5.2c1.7-0.2,3.5-0.2,5.2-0.2
		C352,54.8,352.8,56,351.1,60z"/>
</g>
</svg>
