<svg id="Livello_1" data-name="Livello 1" xmlns="http://www.w3.org/2000/svg" viewBox="0 0 26.79 21.8"><defs><style>.cls-1{fill:#eee;}</style></defs><title>twitter-icon</title><path id="Icon_ionic-logo-twitter" data-name="Icon ionic-logo-twitter" class="cls-1" d="M28.4,6.68a11.25,11.25,0,0,1-3.16.87,5.53,5.53,0,0,0,2.42-3,11,11,0,0,1-3.49,1.33A5.5,5.5,0,0,0,14.66,9.6a5.42,5.42,0,0,0,.15,1.26A15.64,15.64,0,0,1,3.47,5.1a5.51,5.51,0,0,0,1.71,7.35,5.48,5.48,0,0,1-2.5-.69v.07a5.5,5.5,0,0,0,4.4,5.39,5.38,5.38,0,0,1-1.44.2,5.17,5.17,0,0,1-1-.11,5.52,5.52,0,0,0,5.14,3.83,11,11,0,0,1-6.83,2.35,11.51,11.51,0,0,1-1.31-.08A15.36,15.36,0,0,0,10,25.9,15.55,15.55,0,0,0,25.67,10.24c0-.24,0-.48,0-.71A11.29,11.29,0,0,0,28.4,6.68Z" transform="translate(-1.6 -4.1)"/></svg>