<svg id="Livello_1" data-name="Livello 1" xmlns="http://www.w3.org/2000/svg" viewBox="0 0 25 25"><defs><style>.cls-1{fill:#eee;}</style></defs><title>whatsapp-icon</title><path id="Icon_awesome-whatsapp" data-name="Icon awesome-whatsapp" class="cls-1" d="M23.76,6.13a12.39,12.39,0,0,0-19.5,15L2.5,27.5l6.57-1.72A12.34,12.34,0,0,0,15,27.28h0A12.51,12.51,0,0,0,27.5,14.89,12.46,12.46,0,0,0,23.76,6.13ZM15,25.19a10.2,10.2,0,0,1-5.24-1.43l-.38-.22-3.9,1,1-3.8-.24-.39A10.31,10.31,0,1,1,25.4,14.89,10.41,10.41,0,0,1,15,25.19Zm5.65-7.71c-.31-.15-1.83-.9-2.11-1s-.49-.15-.7.16-.8,1-1,1.22-.36.23-.67.07A8.45,8.45,0,0,1,12,14.25c-.31-.55.32-.51.91-1.69a.55.55,0,0,0,0-.54c-.08-.16-.7-1.68-1-2.3s-.51-.52-.7-.53H10.6a1.14,1.14,0,0,0-.83.38,3.5,3.5,0,0,0-1.08,2.59A6.09,6.09,0,0,0,10,15.35,13.77,13.77,0,0,0,15.24,20c2,.85,2.74.92,3.72.78a3.18,3.18,0,0,0,2.09-1.48,2.64,2.64,0,0,0,.18-1.47c-.07-.14-.28-.22-.59-.37Z" transform="translate(-2.5 -2.5)"/></svg>