<?xml version="1.0" encoding="utf-8"?>
<!-- Generator: Adobe Illustrator 26.1.0, SVG Export Plug-In . SVG Version: 6.00 Build 0)  -->
<svg version="1.1" id="Livello_1" xmlns="http://www.w3.org/2000/svg" xmlns:xlink="http://www.w3.org/1999/xlink" x="0px" y="0px"
	 viewBox="0 0 205.1 50" style="enable-background:new 0 0 205.1 50;" xml:space="preserve">
<style type="text/css">
	.st0{fill:#FFFFFF;}
</style>
<g>
	<path class="st0" d="M12.3,40.6C6.6,40.6,0.3,37,0,30.5c0-0.1,0-0.1,0-0.1c0-0.1,0.1-0.1,0.1-0.1c0.1-0.1,0.1-0.1,0.1-0.1
		s0.1,0,0.1,0h7c0.1,0,0.2,0,0.2,0.1c0.1,0.1,0.1,0.1,0.1,0.2c0.2,2.1,2.4,3.3,5.4,3.3c2.1,0,4.3-1,4.3-2.6c0-1.3-1-2.1-2.9-2.7
		c-1.6-0.5-3.4-1-4.8-1.4c-7.7-2.4-8.7-5.7-8.7-9.3c0-4.9,4.8-9.3,11.3-9.3c5.5,0,11.4,2.5,11.9,9.5c0,0.1,0,0.1,0,0.1
		c0,0.1-0.1,0.1-0.1,0.1c-0.1,0.1-0.1,0.1-0.1,0.1c-0.1,0-0.1,0-0.1,0h-7c-0.1,0-0.2-0.1-0.2-0.1c-0.1-0.1-0.1-0.1-0.1-0.2
		c-0.2-2.2-2.3-2.6-4.2-2.6s-3.8,0.6-3.8,2.4s2.4,2.6,3.7,2.9c1.3,0.3,4.9,1.2,4.9,1.2c7.2,1.9,7.7,6.9,7.7,9.1
		C24.7,35.6,20.9,40.6,12.3,40.6L12.3,40.6z"/>
	<path class="st0" d="M54.1,40.3c0,0.1-0.1,0.2-0.1,0.2c-0.1,0.1-0.1,0.1-0.2,0.1h-7.2c-0.1,0-0.2-0.1-0.2-0.1
		c-0.1-0.1-0.1-0.1-0.1-0.2V24c0-3.2-1-6.4-4.7-6.4c-3.4,0-5.6,2.4-5.6,5.6v17.1c0,0.1-0.1,0.2-0.1,0.2c-0.1,0.1-0.1,0.1-0.2,0.1
		h-7.1c-0.1,0-0.1,0-0.1,0c-0.1,0-0.1-0.1-0.1-0.1c0,0-0.1-0.1-0.1-0.1c0-0.1,0-0.1,0-0.1v-40c0-0.1,0-0.2,0.1-0.2
		C28.3,0.1,28.3,0,28.4,0h6.7c0.1,0,0.1,0,0.1,0c0.1,0,0.1,0.1,0.1,0.1c0.1,0.1,0.1,0.1,0.1,0.2v14l0.2-0.2c0.9-1.2,2-2.2,3.3-2.9
		c1.3-0.7,2.7-1,4.1-1.1c4.7,0,7.8,2.3,9.5,5.9c0.7,1.7,1.2,3.5,1.3,5.3c0.1,0.6,0.1,1.1,0.1,1.7L54.1,40.3z"/>
	<path class="st0" d="M72.4,42.8h-0.9c-7.6-0.2-13.4-5.7-13.7-13c-0.2-5.7,3.1-8.7,5.7-10.3c0.1-0.1,0.2-0.1,0.3-0.1
		c0.1,0,0.2,0,0.3,0c0.1,0,0.2,0.1,0.2,0.1c0.1,0.1,0.1,0.1,0.2,0.2l2.4,4.6c0.1,0.2,0.1,0.3,0.1,0.5c-0.1,0.2-0.1,0.3-0.3,0.4
		c-1.7,1.3-2.5,2.6-2.5,4.5c0,3.7,3.2,6.2,7.8,6.3c5.7-0.1,9.2-4,9.2-10.1c0-1.6-0.2-3.1-0.8-4.6c-0.6-1.4-1.4-2.8-2.5-3.9
		c-1-0.9-2.2-1.6-3.4-2s-2.6-0.5-4-0.3c-5.3,0.5-7.5,2-8.9,3.2l-0.2,0.2c-0.1,0.1-0.2,0.1-0.2,0.1c-0.1,0-0.2,0-0.3,0
		s-0.2-0.1-0.3-0.1c-0.1-0.1-0.2-0.1-0.2-0.2l-2.6-4.7c-0.1-0.2-0.1-0.3-0.1-0.5c0.1-0.2,0.1-0.3,0.3-0.4l0.1-0.1
		c2.6-1.8,6-4.2,12.6-4.2c11.3,0,17.4,9.2,17.4,17.8C88,35.5,81.4,42.5,72.4,42.8L72.4,42.8z"/>
	<path class="st0" d="M107.5,10.1c-1.6,0.1-3.2,0.5-4.7,1.3c-1.4,0.7-2.8,1.9-3.7,3.2v-4.2c0-0.1,0-0.1,0-0.1S99,10.2,99,10.2
		c-0.1,0-0.1-0.1-0.1-0.1c-0.1,0-0.1,0-0.1,0h-6.7c-0.1,0-0.1,0-0.1,0c-0.1,0-0.1,0.1-0.1,0.1c-0.1,0.1-0.1,0.2-0.1,0.2v39.2
		c0,0.1,0.1,0.2,0.1,0.2c0.1,0,0.1,0.1,0.1,0.1c0.1,0,0.1,0,0.1,0h7.1c0.1,0,0.1,0,0.1,0c0.1,0,0.1-0.1,0.1-0.1
		c0-0.1,0.1-0.1,0.1-0.1c0-0.1,0-0.1,0-0.1V36.7h0.1c1.1,1.8,4.3,3.9,8.3,3.9c7.6,0,13.9-6.5,13.9-15.3
		C121.8,17,115.5,10.1,107.5,10.1z M114.9,28.8c-0.4,0.9-0.9,1.8-1.6,2.5c-0.7,0.7-1.5,1.3-2.4,1.7c-0.9,0.4-1.9,0.6-2.9,0.6
		c-1.1,0-2.2-0.2-3.3-0.7c-1-0.5-2-1.2-2.7-2.1c-0.7-0.9-1.3-2-1.6-3c-0.3-1.1-0.3-2.3-0.1-3.4c0.2-1.1,0.7-2.2,1.3-3.2
		c0.6-1,1.5-1.7,2.5-2.3c1-0.6,2.1-0.9,3.2-1c1.1-0.1,2.2,0.1,3.3,0.6c1.4,0.6,2.6,1.6,3.4,2.9c0.9,1.3,1.3,2.8,1.3,4.4
		C115.4,26.8,115.2,27.9,114.9,28.8z"/>
	<g>
		<path class="st0" d="M148.9,11.6h-4.5c-0.1,0-0.1,0.1-0.2,0.1c-0.1,0.1-0.1,0.1-0.1,0.1c-0.1,0-0.1,0.1-0.1,0.1
			c-0.1,0.1-0.1,0.1-0.1,0.2v9.8c0,0.1,0.1,0.1,0.1,0.2C144,22,144,22,144,22.1c0,0.1,0.1,0.1,0.1,0.1c0.1,0.1,0.1,0.1,0.2,0.1h4.5
			c2.8,0,4.8-2.2,4.8-5.4C153.6,13.8,151.6,11.6,148.9,11.6z"/>
		<path class="st0" d="M162.8,28.9c0,1.4,1.2,2.2,3.2,2.2c2.8,0,4.4-1.6,4.4-4.3v-0.8l-4.1,0.2C164.1,26.4,162.8,27.4,162.8,28.9z"
			/>
		<path class="st0" d="M204.5,4.9c-0.6-1.4-1.6-2.6-2.8-3.5s-2.8-1.3-4.3-1.3h-60.9c-2.1,0-4,0.8-5.4,2.3c-1.4,1.4-2.2,3.4-2.2,5.5
			v34.3c0,2.1,0.8,4,2.2,5.5c1.4,1.5,3.4,2.3,5.4,2.3h60.9c1,0,2-0.2,2.9-0.6c0.9-0.3,1.8-0.9,2.5-1.7c0.7-0.7,1.3-1.6,1.7-2.5
			c0.4-1,0.6-2,0.6-3V7.9C205.1,6.9,204.9,5.9,204.5,4.9z M149.2,26.1h-4.8c-0.1,0-0.2,0.1-0.3,0.1c-0.1,0.1-0.1,0.2-0.1,0.3v7
			c0,0.1-0.1,0.2-0.1,0.3c-0.1,0.1-0.2,0.1-0.3,0.1h-3.4c-0.1,0-0.2-0.1-0.3-0.1c-0.1-0.1-0.1-0.2-0.1-0.3V8.3c-0.1-0.1,0-0.1,0-0.2
			c0-0.1,0-0.1,0.1-0.1c0-0.1,0.1-0.1,0.1-0.1c0.1-0.1,0.1-0.1,0.2-0.1h9c5.1,0,8.8,3.8,8.9,9.2C157.9,22.4,154.3,26.1,149.2,26.1z
			 M174.3,33.4c0,0.1,0,0.1,0,0.2c-0.1,0-0.1,0.1-0.1,0.1c0,0.1-0.1,0.1-0.1,0.1c-0.1,0-0.1,0-0.2,0h-3.2c-0.1,0-0.1,0-0.2,0
			c-0.1-0.1-0.1-0.1-0.1-0.1c-0.1,0-0.1-0.1-0.1-0.1c0-0.1,0-0.1,0-0.2v-0.7c0-0.1,0-0.1-0.1-0.2c-0.1-0.1-0.1-0.1-0.2-0.1
			c-0.1,0-0.1,0-0.2,0c-0.1,0-0.1,0.1-0.2,0.1c-0.9,1.1-2.5,1.8-4.9,1.8c-3.6,0-6-2-6-5.3c-0.1-0.8,0.1-1.6,0.5-2.4
			c0.3-0.7,0.9-1.4,1.5-1.8c1.3-1,3.4-1.6,6.4-1.7l3.2-0.1v-1c0-2-1.2-2.8-3.3-2.8c-2,0-3.3,0.7-3.6,2c-0.1,0.1-0.1,0.2-0.2,0.2
			c-0.1,0.1-0.2,0.1-0.2,0.1h-3.2c-0.1,0-0.1,0-0.2,0c-0.1-0.1-0.1-0.1-0.1-0.1c0-0.1-0.1-0.1-0.1-0.2c0-0.1,0-0.1,0-0.2
			c0.5-2.9,2.8-5.1,7.7-5.1c5.2,0,7.1,2.5,7.1,7.2V33.4z M194.2,17.2l-7.1,19.4c-1.6,4.5-4.4,5.7-7.5,5.7c-0.6,0-1.1-0.1-1.7-0.2
			c-0.1-0.1-0.2-0.1-0.2-0.2c-0.1-0.1-0.1-0.1-0.1-0.2v-3c0-0.1,0.1-0.1,0.1-0.2c0.1,0,0.1-0.1,0.1-0.1c0.1-0.1,0.1-0.1,0.2-0.1
			c0.1,0,0.1,0,0.2,0c0.5,0.1,1,0.1,1.4,0.1c0.9,0.1,1.7-0.2,2.4-0.7c0.7-0.5,1.2-1.2,1.4-2.1l0.2-0.7c0.1-0.1,0.1-0.2,0-0.3
			l-6.6-17.5c0-0.1,0-0.1,0-0.2c0-0.1,0-0.1,0.1-0.2c0.1-0.1,0.1-0.1,0.2-0.1c0.1-0.1,0.1-0.1,0.2-0.1h3.2c0.1,0,0.2,0,0.2,0.1
			c0.1,0,0.1,0.1,0.2,0.2l4.5,12.4c0.1,0.1,0.1,0.2,0.2,0.2c0.1,0.1,0.2,0.1,0.2,0.1c0.1,0,0.2,0,0.2-0.1c0.1-0.1,0.1-0.2,0.2-0.2
			l3.9-12.3c0.1-0.1,0.1-0.2,0.2-0.2c0.1,0,0.2-0.1,0.2-0.1h3.3c0.1,0,0.1,0,0.2,0.1c0.1,0.1,0.1,0.1,0.1,0.2s0.1,0.1,0.1,0.2
			C194.2,17.1,194.2,17.1,194.2,17.2z"/>
	</g>
</g>
</svg>
