<?xml version="1.0" encoding="utf-8"?>
<!-- Generator: Adobe Illustrator 26.1.0, SVG Export Plug-In . SVG Version: 6.00 Build 0)  -->
<svg version="1.1" id="Livello_1" xmlns="http://www.w3.org/2000/svg" xmlns:xlink="http://www.w3.org/1999/xlink" x="0px" y="0px"
	 viewBox="0 0 244 100" style="enable-background:new 0 0 244 100;" xml:space="preserve">
<style type="text/css">
	.st0{fill:#FFFFFF;}
</style>
<g>
	<path class="st0" d="M200.1,99.9c-0.5,0-0.9-0.1-1.4-0.1c-0.3,0-0.5-0.1-0.5-0.5c0-2.7,0-5.3,0-8c0-0.4,0.1-0.5,0.4-0.4
		c1.2,0.1,2.4,0.2,3.7,0.1c4.1-0.1,6.8-2.1,8.3-5.8c0.7-1.6,1.1-3.3,1.7-4.9c0.1-0.2,0-0.4-0.1-0.5c-2.8-7.8-5.7-15.7-8.5-23.5
		c-3.6-9.9-7.1-19.8-10.7-29.6c-0.2-0.5-0.2-0.5,0.4-0.5c3.7,0,7.4,0,11.1,0c0.3,0,0.5,0.1,0.6,0.4c4.4,14.3,8.8,28.6,13.3,42.9
		c0.1,0.2,0,0.5,0.3,0.5c0.3,0,0.2-0.3,0.3-0.5c4.4-14.3,8.8-28.5,13.2-42.8c0.1-0.4,0.3-0.5,0.7-0.5c3.5,0,7.1,0,10.6,0
		c0.5,0,0.5,0,0.4,0.5c-5.4,15.1-10.8,30.2-16.1,45.2c-1.6,4.5-3.2,9.1-4.9,13.6c-1.2,3-2.6,5.8-4.6,8.4c-2.7,3.3-6.2,5.2-10.4,5.9
		c-0.9,0.1-1.7,0.3-2.6,0.3c-0.1,0-0.1,0-0.1,0.1c-0.2,0-0.4,0-0.7,0c-0.2-0.1-0.3,0-0.5,0c-0.3,0-0.6-0.1-0.9,0c-0.2,0-0.3,0-0.5,0
		c-0.3-0.1-0.5-0.1-0.8,0c-0.1,0-0.2,0-0.3,0c-0.2-0.1-0.4-0.1-0.6,0c-0.1,0-0.1,0-0.2,0C200.4,99.9,200.2,100,200.1,99.9z"/>
	<path class="st0" d="M202.8,100c0.3-0.2,0.6-0.1,1-0.1c0,0,0,0,0,0.1c0,0,0,0,0,0C203.5,100,203.2,100,202.8,100z"/>
	<path class="st0" d="M201.6,100c0.3-0.2,0.5-0.1,0.8,0C202.1,100,201.9,100,201.6,100z"/>
	<path class="st0" d="M200.7,100c0.2-0.2,0.4-0.1,0.6,0C201.1,100,200.9,100,200.7,100z"/>
	<path class="st0" d="M200.1,99.9c0.2,0,0.3-0.1,0.5,0.1C200.4,100,200.2,100,200.1,99.9C200.1,100,200.1,99.9,200.1,99.9z"/>
	<path class="st0" d="M203.8,100C203.8,100,203.8,99.9,203.8,100c0.2-0.1,0.4-0.2,0.5,0C204.1,100,204,100,203.8,100z"/>
	<path class="st0" d="M0.2,42.8c0-3,0.6-6.8,2.1-10.4c2.4-5.6,6.3-9.6,12.1-11.6c4.2-1.5,8.3-1.3,12.4,0.4c1.4,0.6,2.8,1.1,4.3,1.6
		c1.5,0.5,2.9,0.5,4.4,0c2.1-0.7,4-1.6,6.1-2.2c2.2-0.7,4.5-1.2,6.8-1.1c5.3,0.3,9.9,2,13.5,6c0.5,0.5,0.9,1.1,1.3,1.6
		c0.2,0.3,0.2,0.4-0.1,0.6c-3.1,2.1-5.5,4.7-7,8.2c-2.9,6.7-1.6,16,6.1,21.4c0.9,0.6,1.8,1.2,2.8,1.7c0.3,0.1,0.4,0.3,0.3,0.6
		c-1.3,4-3.1,7.7-5.5,11.1c-1.6,2.3-3.1,4.5-5.1,6.4c-1.7,1.6-3.6,2.8-5.9,3.2c-2.2,0.3-4.4-0.1-6.4-0.9c-1.6-0.7-3.1-1.4-4.8-1.8
		c-3.4-0.7-6.6-0.3-9.8,1c-1.5,0.6-3,1.3-4.6,1.7c-3.1,0.7-5.8-0.1-8.2-2c-2.2-1.7-3.8-3.9-5.5-6.1C5.8,66.5,3,60.4,1.4,53.7
		C0.6,50.4,0.2,47.1,0.2,42.8z"/>
	<path class="st0" d="M87.1,42.7c0-12.2,0-24.3,0-36.5c0-0.5,0.1-0.6,0.6-0.6c9.1,0,18.3,0,27.4,0c5,0,9.6,1.1,13.8,3.8
		c4.7,3,7.8,7.3,9.4,12.7c1.7,6,1.6,12-0.7,17.8c-3,7.4-8.6,11.9-16.3,13.8c-2.2,0.5-4.4,0.8-6.7,0.8c-5.1,0-10.3,0-15.4,0
		c-0.4,0-0.5,0.1-0.5,0.5c0,8.1,0,16.2,0,24.3c0,0.5-0.1,0.5-0.5,0.5c-3.5,0-7,0-10.5,0c-0.4,0-0.5-0.1-0.5-0.5
		C87.1,67.1,87.1,54.9,87.1,42.7z"/>
	<path class="st0" d="M188.3,60.5c0,6.3,0,12.6,0,18.9c0,0.4-0.1,0.5-0.5,0.5c-3.2,0-6.5,0-9.7,0c-0.4,0-0.5-0.1-0.5-0.5
		c0-2.7,0-5.4,0-8c0-0.1,0.1-0.3-0.1-0.4c-0.2,0-0.2,0.1-0.3,0.2c-2.5,4.3-6.2,7-10.9,8.3c-5.2,1.5-10.3,1.2-15.2-1.1
		c-6-2.8-8.9-7.6-8.9-14.2c0-3.5,1-6.6,3.4-9.3c1.8-2.1,4.2-3.4,6.7-4.4c3.2-1.2,6.6-1.8,10-2c4.8-0.3,9.7-0.6,14.5-0.9
		c0.2,0,0.4,0,0.4-0.3c0-1.7,0.1-3.4-0.1-5c-0.4-4-2.5-6.5-6.4-7.6c-3.5-0.9-7.1-0.9-10.5,0.7c-2.5,1.2-4.2,3.2-4.9,6
		c-0.1,0.3-0.2,0.3-0.4,0.3c-3.2,0-6.4,0-9.7,0c-0.3,0-0.4-0.1-0.3-0.4c0.5-6.1,3.8-10.3,8.9-13.2c4-2.2,8.3-3,12.8-3
		c3.6,0,7.2,0.5,10.6,1.8c4.2,1.6,7.5,4.3,9.5,8.4c1.2,2.4,1.6,5,1.6,7.7C188.3,48.9,188.3,54.7,188.3,60.5z"/>
	<path class="st0" d="M48.9,1.6c0,4.1-1.4,7.7-3.9,10.8c-2.3,3-5.3,5-9.1,5.9c-0.9,0.2-1.9,0.3-2.8,0.3c-0.4,0-0.5-0.1-0.5-0.5
		c-0.2-2,0.1-3.9,0.8-5.8c2.1-5.9,6.1-9.9,12.1-11.8c1-0.3,1.9-0.5,2.9-0.6c0.3,0,0.4,0,0.4,0.4C48.9,0.8,48.9,1.2,48.9,1.6z"/>
	<path class="st0" d="M98.6,30c0-4.7,0-9.5,0-14.2c0-0.4,0.1-0.5,0.5-0.5c4.5,0,9,0,13.4,0c2.6,0,5.1,0.5,7.4,1.5
		c3.6,1.6,6,4.4,7,8.2c0.9,3.4,0.9,6.9-0.1,10.3c-1.4,4.6-4.6,7.4-9.2,8.7c-1.9,0.5-3.9,0.7-5.9,0.7c-4.2,0-8.4,0-12.6,0
		c-0.4,0-0.6-0.1-0.6-0.5C98.6,39.5,98.6,34.8,98.6,30z"/>
	<path class="st0" d="M177.2,58.1c0,1.6,0,3.2-0.4,4.8c-0.9,3.2-2.9,5.5-5.8,7c-4.1,2.1-8.4,2.4-12.8,0.8c-2.2-0.8-3.9-2.3-4.5-4.7
		c-0.9-3.5,0.7-6.6,4.2-8.2c1.8-0.8,3.8-1.2,5.8-1.3c4.4-0.3,8.7-0.6,13.1-0.9c0.4,0,0.6,0.1,0.5,0.5
		C177.2,56.7,177.2,57.4,177.2,58.1z"/>
</g>
</svg>
