<?xml version="1.0" encoding="utf-8"?>
<!-- Generator: Adobe Illustrator 23.0.6, SVG Export Plug-In . SVG Version: 6.00 Build 0)  -->
<svg version="1.1" id="Livello_1" xmlns="http://www.w3.org/2000/svg" xmlns:xlink="http://www.w3.org/1999/xlink" x="0px" y="0px"
	 viewBox="0 0 512 512" style="enable-background:new 0 0 512 512;" xml:space="preserve">
<style type="text/css">
	.st0{fill:#FFFFFF;}
</style>
<path class="st0" d="M0,256c0,141.4,114.6,256,256,256s256-114.6,256-256S397.4,0,256,0S0,114.6,0,256z M294.6,135.1l99.9,107.1
	c3.5,3.8,5.5,8.7,5.5,13.8c0,5.1-2,10.1-5.5,13.8l-99.9,107.1c-4.2,4.5-10.1,7.1-16.3,7.1c-12.3,0-22.3-10-22.3-22.3V304h-96
	c-17.7,0-32-14.3-32-32v-32c0-17.7,14.3-32,32-32h96v-57.7c0-12.3,10-22.3,22.3-22.3C284.5,128,290.4,130.6,294.6,135.1z"/>
</svg>
