<?xml version="1.0" encoding="utf-8"?>
<!-- Generator: Adobe Illustrator 23.0.6, SVG Export Plug-In . SVG Version: 6.00 Build 0)  -->
<svg version="1.1" id="Livello_1" xmlns="http://www.w3.org/2000/svg" xmlns:xlink="http://www.w3.org/1999/xlink" x="0px" y="0px"
	 viewBox="0 0 500 500" style="enable-background:new 0 0 500 500;" xml:space="preserve">
<style type="text/css">
	.st0{fill:#2B2B2B;}
</style>
<path class="st0" d="M452.3,500H47.7c-26.3,0-47.6-19.1-47.6-42.7l0,0c0-23.6,21.3-42.7,47.6-42.7h404.6c26.3,0,47.6,19.1,47.6,42.7
	l0,0C499.9,480.9,478.6,500,452.3,500z"/>
<path class="st0" d="M452.3,292.7H47.7c-26.3,0-47.6-19.1-47.6-42.7l0,0c0-23.6,21.3-42.7,47.6-42.7h404.6
	c26.3,0,47.6,19.1,47.6,42.7l0,0C499.9,273.6,478.6,292.7,452.3,292.7z"/>
<path class="st0" d="M452.3,85.4H47.7c-26.3,0-47.6-19.1-47.6-42.7l0,0C0.1,19.1,21.4,0,47.7,0h404.6C478.7,0,500,19.1,500,42.7l0,0
	C499.9,66.3,478.6,85.4,452.3,85.4z"/>
</svg>
