<?xml version="1.0" encoding="utf-8"?>
<!-- Generator: Adobe Illustrator 23.0.6, SVG Export Plug-In . SVG Version: 6.00 Build 0)  -->
<svg version="1.1" id="Livello_1" xmlns="http://www.w3.org/2000/svg" xmlns:xlink="http://www.w3.org/1999/xlink" x="0px" y="0px"
	 viewBox="0 0 27.7 21" style="enable-background:new 0 0 27.7 21;" xml:space="preserve">
<style type="text/css">
	.st0{fill:#2B2B2B;}
</style>
<title>quote</title>
<path id="Icon_awesome-quote-right" class="st0" d="M2.6,21h6.9c1.3,0.1,2.5-0.9,2.6-2.2v-6c-0.1-1.3-1.3-2.3-2.6-2.2H5.2v-3
	c0.1-1.8,1.7-3.1,3.5-3h0.4c0.7,0,1.2-0.5,1.3-1.1l0,0V1.1C10.3,0.5,9.8,0,9.1,0H8.7C3.9,0,0,3.3,0,7.5l0,0v11.2
	C0.1,20.1,1.3,21.1,2.6,21z M18.2,21h6.9c1.3,0.1,2.5-0.9,2.6-2.2v-6c-0.1-1.3-1.3-2.3-2.6-2.2h-4.3v-3c0.1-1.8,1.7-3.1,3.5-3h0.4
	c0.7,0,1.2-0.5,1.3-1.1l0,0V1.1C25.9,0.5,25.4,0,24.7,0h-0.4c-4.8,0-8.7,3.3-8.7,7.5l0,0v11.2C15.7,20.1,16.9,21.1,18.2,21z"/>
</svg>
